<?xml version="1.0" encoding="utf-8"?>
<!-- Generator: Adobe Illustrator 24.0.3, SVG Export Plug-In . SVG Version: 6.00 Build 0)  -->
<svg version="1.1" id="Layer_1" xmlns="http://www.w3.org/2000/svg" xmlns:xlink="http://www.w3.org/1999/xlink" x="0px" y="0px"
	 viewBox="0 0 177.5 150.2" width="100" height="20" style="enable-background:new 0 0 177.5 133.2;" xml:space="preserve">
<style type="text/css">
	.st0{fill:#1A3D6D;}
</style>
<g>
	<g>
		<g>
			<path class="st0" d="M115.2,20.2c-1.9-1.4-3.9-2.6-5.9-3.7c-4.9,0.3-21.9,2.4-22.7,14c0,0.1,0.1,0.2,0.2,0.1
				C94.4,19.3,110.2,19.4,115.2,20.2z"/>
			<path class="st0" d="M80.6,43.9c-0.8,0.1-1.2,0.2-1.5,1c-0.5,1.1-0.1,2-0.8,2.6c-0.3,0.2-0.2,0.9,0.2,0.9c3-0.1,5-0.1,8.5-2.4
				c0.4-0.2,0.3-0.8-0.1-1C85.1,44.5,82.4,43.8,80.6,43.9z"/>
			<path class="st0" d="M100.6,36.9c0.1,0,0.2,0,0.3,0c0.7,0.1,1.2,0.3,0.8-0.3c0,0,0,0,0,0c-1.9-2.6-5.4,0.2-6.6,1.4l0,0
				c1,0.5,2,1.2,2.9,1.9C98.4,38.1,99.7,36.7,100.6,36.9z"/>
			<path class="st0" d="M126.1,71.9c0-12.1-6.3-22.7-15.8-28.7l0,0c8.7,3.2,17.1,8.1,24.1,13.8c-0.1-3-0.4-5.9-1.1-8.8
				c-6.3-7.1-15.5-12-25.5-12.8c-0.3-0.7-1.3-2.6-3.6-3.8c2.5-0.6,5.1-0.9,7.7-0.9c3.6,0,7.1,0.6,10.4,1.6c2.2,0.7,5.1,1.7,5.5,1.9
				c-1.7-2.8-3.6-5.4-5.8-7.8c-28.3-6.5-30.9,9.9-30.9,9.9c0,0.2,0,0.4,0.2,0.4c0.2,0,0.3,0.1,0.5,0.1c0.2,0,0.3,0,0.4-0.1
				c0.6-0.7,1.2-1.3,1.9-1.8c1.6-1.3,4.1-2.9,7.7-1.6c2.4,1,4,3.3,4,6.1c0,2.6-1.6,4.9-3.8,5.9l-0.1,0.1c0.1,0.2,0.2,0.5,0.3,0.7
				c0.5,1.5,0.8,3.1,0.8,4.8c0,3.6-1.5,7.1-3.7,9.6c0.1-0.1,0.3-0.6,0.5-1.2c0.5-1.2,0.8-2.4,0.8-3.8c0-2.8-1.2-5.3-3.1-7.1
				c1.4,4.5-0.1,18.1-10.8,17.9c0,0-3.8-0.2-5.1-0.6c0,0,0.4,5.8-3.8,6.6c-1.2,0.2-2.4,0.2-3.6,0.2c-3.2,0-6.4-0.9-9.8-2.9
				c-2.6-1.7-3.6-3.5-3.6-4.1c0.1-4.4,1.3-4.9,3.7-5.5c1-0.3,2.7,0,3.9,0.4c0.2,0.1,0.5-0.2,0.4-0.4c-0.3-0.8-0.7-1.7-1.1-2
				c-0.5-0.4-1.2-0.5-2-0.4c-1,0-1.8,0.6-2.8,0.5c-1.6-0.1-2.1-1.1-3.7-1.1c-1.4,0-1.6,0.9-2.4,1c-0.4,0-0.9-0.7-0.8-1.1
				c0.4-1.3,1.7-3.4,2.6-4c2.2-1.5,5.8-3.2,7.9-4.8c0.8-0.6,1.9-8.6,8-10.3c0.5-0.1,0.8-0.1,1.2-0.4c0.1,0,0.1-0.1,0-0.2
				c-4.5-13.1,6.9-18.5,6.8-18.4c-2.1,1.6-6,6.4-3.6,12.5c0.1,0.1,0.3,0.1,0.3,0c2.4-14.6,20.2-16.5,25-16.8
				C99.1,12.2,93.3,11,87.3,11c-26,0-47.1,21.1-47.1,47.1c0,21.5,14.3,39.6,34,45.3l-0.8-4c-0.3-1.5-0.4-3.1-0.4-4.7
				c0-10.1,5.9-18.7,14.4-22.8c-2.1,3.5-3.2,7.6-3.2,12c0,2.1,0.3,3.8,1,5.5c1-5.4,3.8-10.2,7.8-13.7c2.4-2.5,4.8-4.6,7.7-8
				c2.2-2.5,3.8-5.6,5-8.7c0.3-0.9,0.6-1.8,0.8-2.7c0.1-0.5,0.2-0.9,0.4-1.4c0.1-0.4,0.2-1.4,0.4-1.4c0.1,0,0.2,1.1,0.2,1.7
				c0,0.5,0.1,1.2,0.1,1.7c0.2,4.6-0.3,9.3-1.7,13.7c-0.1,0.3-0.2,0.7-0.3,1c-2.1,6-5.6,11.1-9.4,16c-3.3,4.2-5.6,9.2-5.6,15
				c0,0.8,0,1.8,0,2.6c2.8-0.2,5.5-0.6,8.1-1.3c0.3-1.3,1.1-4,1.1-4c4.5-12,16.7-20.7,16-37.8c0-0.1,0.1-0.1,0.2-0.1
				c3.2,6.3,1.2,19.8-1,29.8c0,0,0,0,0,0c-0.4,1.9-0.8,3.7-1.2,5.3c2.9-2,5.6-4.3,8-6.8C125,85.1,126.1,78.5,126.1,71.9z M58,68.6
				c-0.2,0.4-0.5,1.1-0.7,1.1c-0.2,0-0.6-1.2-0.8-1.8c-0.2-0.5-0.4-1-0.5-1.5c-0.2-0.8-0.4-1.7-0.5-2.5c-0.1-1.2,0.1-2.4,0.7-3.5
				c0-0.1,0.6-0.8,0.9-0.7c1.5,0.1,1.8,3.1,1.8,5.1C58.9,65.6,58.5,67.7,58,68.6z M75.4,75.4c-6.7,5.2-6.9,7.9-7,7.8c0,0,0,0,0,0
				c0,0,0,0,0,0c-2.5-1.6-5.2-5.6-6.2-7.3c-0.3,0.5-0.4,1.8-0.4,2.3c0,0.1,0,0.3-0.2,0.1c-0.3-0.4-0.5-0.7-0.8-1.1
				c-0.5-0.9-1.2-2-1.3-3c0,0-0.3-1.8-0.2-2.6c0.1-1.6,0.6-2.7,0.9-3.3c0.9,2,4,4.3,5.8,5.1c2.1,1,5.8,2.2,9.2,1.7
				C75.5,75.2,75.5,75.3,75.4,75.4z"/>
		</g>
	</g>
	<g>
		<g>
			<g>
				<g>
					<polygon class="st0" points="74.1,124.5 74.1,117.7 69.8,117.7 69.8,124.5 69.8,131.5 78.4,131.5 78.4,129.9 74.1,129.9 					
						"/>
					<polygon class="st0" points="33,119.4 36,119.4 36,124.4 36,131.5 40.2,131.5 40.2,124.5 40.2,119.4 43.3,119.4 43.3,117.7 
						33,117.7 					"/>
					<path class="st0" d="M27.5,124.5v5.9c-1.2,0.1-2.2-0.2-2.2-1.3v-4.6v-6.9h-4v6.9v2.8v1c0,1.6,0.7,2.4,1.7,2.8
						c0.5,0.2,1,0.4,1.5,0.4h7.2v-0.4v-6.6v-6.9h-4.1L27.5,124.5L27.5,124.5z"/>
					<path class="st0" d="M65.4,117.7h-7.6v1.3h4.7c0.4,0,0.7,0.3,0.8,0.6c0.3,0.6,0.2,1.3,0.2,1.3v1.7h-4.2c-1.1,0-2,1.1-2,2.4v0.3
						v2.2v1.1c0,1.4,0.5,2.2,1.2,2.7c0.4,0.3,0.8,0.4,1.3,0.4h7.8v-0.4v-6v-5v-0.6C67.6,118.6,66.7,117.7,65.4,117.7z M63.5,130.4
						c-1.2,0.1-2,0-2-1.3c0,0,0-2,0-3.8c0-1.1,1-1.4,2-1.4v1.3V130.4z"/>
					<path class="st0" d="M50.9,124.5v5.9c-1.2,0.1-2.2-0.2-2.2-1.3v-4.6v-6.9h-4v6.9v2.8v1c0,1.6,0.8,2.4,1.7,2.8
						c0.5,0.2,1,0.4,1.5,0.4H55v-0.4v-6.6v-6.9h-4.1L50.9,124.5L50.9,124.5z"/>
					<path class="st0" d="M132.5,117.7h-14.2v2.7v4.2v7h4.3v-7v-4.2V119c1.2,0,2,0.3,2,1.4v4.2v7h4.4v-0.4v-6.6v-4.2V119
						c1.2,0,2,0.3,2,1.4v4.2v7h4.4v-7v-4.3C135.5,119.1,134,117.7,132.5,117.7z"/>
					<path class="st0" d="M115.9,117.7c-0.1-0.2-0.1-0.5-0.2-0.7v0c-0.1-0.4-0.3-0.9-0.5-1.2c-1.5-3.6-4.6-5.3-8.8-5.3
						c-4.6-0.1-7.5,2.1-8.9,5.3c-0.2,0.4-0.3,0.8-0.4,1.2h0c0,0,0,0.1,0,0.1c-0.2,0.7-0.3,1.6-0.4,2.4c-0.2,1.3-0.2,2.7-0.1,3.9
						c0.1,0.4,0.1,0.7,0.2,1.1h0c0.2,0.9,0.3,1.6,0.6,2.3c0.1,0.2,0.1,0.4,0.2,0.6c1.1,2,2.4,3.2,4,3.8c1.5,0.7,3.1,0.9,4.9,0.8
						c1.6,0,3-0.3,4.2-0.8c1.5-0.7,2.8-1.5,3.7-2.7c0.3-0.4,0.5-0.7,0.7-1.1c0.3-0.8,0.6-1.8,0.8-2.8v0c0.1-0.4,0.1-0.7,0.2-1.1
						c0.1-1.3,0.1-2.7,0-3.9C116.1,118.9,116,118.2,115.9,117.7z M111,124.5c0,1-0.1,1.9-0.3,2.8c-0.5,2-1.6,3.5-4.2,3.5
						c-2.8,0-4-1.4-4.5-3.5c-0.1-0.8-0.2-1.8-0.3-2.8v0c0-0.4,0-0.7,0-1.1v-2.2v-1.7c0-0.9,0-1.8,0-2.6c0-0.4,0.1-0.9,0.1-1.3
						c0.3-2.5,1.3-4,4.6-4c2.9,0,3.9,1.7,4.3,4c0.1,0.4,0.1,0.8,0.1,1.2v0c0,0.8,0.1,1.7,0.1,2.7v1.6v2.2
						C111,123.8,111,124.2,111,124.5L111,124.5L111,124.5z"/>
					<polygon class="st0" points="12.3,116.9 10.4,124.5 10.2,125.1 10,124.5 8,116.9 6.3,110.9 0.7,110.9 0.7,116.9 0.7,124.5 
						0.7,131.5 2.7,131.5 2.7,124.5 2.7,116.9 2.7,115.2 3.1,116.9 5.2,124.5 7.1,131.5 10.4,131.5 12.2,124.5 14.1,116.9 
						14.6,115.2 14.6,116.9 14.6,124.5 14.6,131.5 19.1,131.5 19.1,124.5 19.1,116.9 19.1,110.9 13.7,110.9 					"/>
					<path class="st0" d="M90.5,117L90.5,117c-0.5,0.7-0.8,1.2-0.8,1.2h-5.6c-0.8-0.1-1.4-0.2-2.3,0.1c-2.1,0.6-2.7,2.1-3.2,3.2
						c-0.4,0.8-0.4,1.9,0.3,2.7c0.1,0.2,0.3,0.3,0.5,0.4h0c1.3,0.9,3.6,0.8,5,0v0c0.1,0,0.2-0.1,0.3-0.2c1.2-0.8,2.2-2.7,1.7-4.8
						c0-0.1-0.1-0.2-0.1-0.3h2.8c0,0-0.1,0.1-0.2,0.3c-0.3,0.7-1,2.4-1.7,3.9c-0.1,0.4-0.3,0.8-0.5,1.1v0c-0.2,0.3-0.3,0.6-0.4,0.8
						c-0.5,0.8-1.3,2.7-3.4,3.4c-1.9,0.6-3.9-0.5-3.9-0.5l-0.1,1c0.3,0.2,0.5,0.2,0.6,0.3c0.2,0.1,0.4,0.1,1,0.3
						c2.2,0.5,5.3-0.9,6.8-2.4c0.4-0.4,1.1-1,2-2.8v0c0.2-0.3,0.3-0.7,0.5-1.1c0.2-0.4,0.4-0.8,0.6-1.4c0.5-1.2,0.9-2.8,0.9-2.8H95
						l0.3-1.1h-3.4c0.1-0.4,0.3-0.8,0.4-1.2h0c0.3-0.6,0.6-1.1,0.7-1.3c0.4-0.5,0.8-1.3,2.3-1.2v-1c-1.6,0.4-2.6,1-3.5,1.8
						C91.3,115.9,90.8,116.5,90.5,117z M83.7,122.2c-0.2,0.5-0.4,0.8-0.7,1.2c-0.5,0.6-1,1-1.7,0.8c-0.5-0.1-0.8-0.4-0.8-0.8
						c0-0.5,0.2-1,0.5-1.6c0.2-0.5,1.2-2.3,1.2-2.3c0.2-0.3,0.5-0.5,0.8-0.6c0.7-0.1,1.3,0.1,1.4,0.6
						C84.6,120.4,84.1,121.2,83.7,122.2z"/>
					<path class="st0" d="M145.9,117.7h-7.6v1.3h4.7c0.4,0,0.7,0.3,0.8,0.6c0.3,0.6,0.2,2,0.2,2v1h-4.2c-1.1,0-2,1.1-2,2.4v0.3v2.2
						v1.1c0,1.4,0.5,2.2,1.2,2.7c0.4,0.3,0.8,0.4,1.3,0.4h7.8v-0.4v-6v-5v-0.6C148,118.6,147.1,117.7,145.9,117.7z M143.9,130.4
						c-1.2,0.1-2,0-2-1.3c0,0,0-2,0-3.8c0-1.1,1-1.4,2-1.4v1.3V130.4z"/>
					<path class="st0" d="M171.6,117.6H164v1.3h4.7c0.4,0,0.7,0.3,0.8,0.6c0.3,0.6,0.2,2,0.2,2v1h-4.2c-1.1,0-2,1.1-2,2.4v0.3v2.2
						v1.1c0,1.4,0.5,2.2,1.2,2.7c0.4,0.3,0.8,0.4,1.3,0.4h7.8v-0.4v-6v-5v-0.6C173.8,118.6,172.8,117.6,171.6,117.6z M169.7,130.4
						c-1.2,0.1-2,0-2-1.3c0,0,0-2,0-3.8c0-1.1,1-1.4,2-1.4v1.3V130.4z"/>
					<polygon class="st0" points="156.9,119.5 156.9,122 156.9,122.5 154.6,122.5 154.6,122 154.6,119.5 154.6,117.7 150.2,117.7 
						150.2,119.5 150.2,122 150.2,123.1 150.2,127.3 150.2,131.2 150.2,131.5 154.6,131.5 154.6,131.2 154.6,127.3 154.6,124.2 
						156.9,124.2 156.9,127.3 156.9,131.2 156.9,131.5 161.2,131.5 161.2,131.2 161.2,127.3 161.2,123.1 161.2,122 161.2,119.5 
						161.2,117.7 156.9,117.7 					"/>
					<g>
						<path class="st0" d="M175.9,117.6c-0.5,0-0.9,0.4-0.9,0.9c0,0.5,0.4,0.9,0.9,0.9c0.5,0,0.9-0.4,0.9-0.9
							C176.8,118,176.4,117.6,175.9,117.6L175.9,117.6z M175.9,119.2c-0.4,0-0.7-0.3-0.7-0.7c0-0.4,0.3-0.7,0.7-0.7
							c0.4,0,0.7,0.3,0.7,0.7C176.6,118.9,176.3,119.2,175.9,119.2L175.9,119.2z"/>
						<path class="st0" d="M176.1,118.3c0,0.1,0,0.1-0.1,0.1c0,0-0.1,0-0.2,0h-0.1v-0.3l0.1,0c0.1,0,0.1,0,0.1,0
							C176.1,118.2,176.1,118.2,176.1,118.3L176.1,118.3z M176.3,119c0,0-0.1-0.2-0.2-0.2c0-0.1-0.1-0.1-0.1-0.1
							c0,0-0.1-0.1-0.1-0.1c0.2,0,0.3-0.1,0.3-0.3c0-0.1,0-0.2-0.1-0.2c-0.1,0-0.1-0.1-0.3-0.1h-0.3v1h0.2v-0.4c0,0,0.1,0,0.1,0
							s0.1,0.2,0.2,0.3c0,0.1,0.1,0.1,0.1,0.1H176.3L176.3,119z"/>
					</g>
				</g>
			</g>
		</g>
	</g>
</g>
</svg>
